<mxfile host="app.diagrams.net" modified="2024-04-24T16:47:29.456Z" agent="Mozilla/5.0 (Windows NT 10.0; Win64; x64) AppleWebKit/537.36 (KHTML, like Gecko) Chrome/124.0.0.0 Safari/537.36" etag="9FoXv4Drxzgz4axLPtfp" version="24.3.0" type="github">
  <diagram name="PÃ¡gina-1" id="UZKYXkMtcEIQptRcLtab">
    <mxGraphModel dx="1167" dy="580" grid="1" gridSize="10" guides="1" tooltips="1" connect="1" arrows="1" fold="1" page="1" pageScale="1" pageWidth="827" pageHeight="1169" math="0" shadow="0">
      <root>
        <mxCell id="0" />
        <mxCell id="1" parent="0" />
        <mxCell id="bGAOC426BUJq2uiU224B-1" value="&lt;font style=&quot;font-size: 20px;&quot;&gt;Inicio&lt;/font&gt;" style="ellipse;whiteSpace=wrap;html=1;" vertex="1" parent="1">
          <mxGeometry x="354" y="50" width="120" height="80" as="geometry" />
        </mxCell>
        <mxCell id="bGAOC426BUJq2uiU224B-19" style="edgeStyle=orthogonalEdgeStyle;rounded=0;orthogonalLoop=1;jettySize=auto;html=1;" edge="1" parent="1" source="bGAOC426BUJq2uiU224B-2">
          <mxGeometry relative="1" as="geometry">
            <mxPoint x="240" y="220" as="targetPoint" />
          </mxGeometry>
        </mxCell>
        <mxCell id="bGAOC426BUJq2uiU224B-20" style="edgeStyle=orthogonalEdgeStyle;rounded=0;orthogonalLoop=1;jettySize=auto;html=1;" edge="1" parent="1" source="bGAOC426BUJq2uiU224B-2">
          <mxGeometry relative="1" as="geometry">
            <mxPoint x="240" y="320" as="targetPoint" />
          </mxGeometry>
        </mxCell>
        <mxCell id="bGAOC426BUJq2uiU224B-34" style="edgeStyle=orthogonalEdgeStyle;rounded=0;orthogonalLoop=1;jettySize=auto;html=1;" edge="1" parent="1" source="bGAOC426BUJq2uiU224B-2">
          <mxGeometry relative="1" as="geometry">
            <mxPoint x="570" y="340" as="targetPoint" />
            <Array as="points">
              <mxPoint x="511" y="245" />
              <mxPoint x="511" y="340" />
            </Array>
          </mxGeometry>
        </mxCell>
        <mxCell id="bGAOC426BUJq2uiU224B-2" value="&lt;font style=&quot;font-size: 14px;&quot;&gt;La variable tiene que ser entero sin limite hasta colocar el numero 0 es en donde se cancela.&lt;/font&gt;" style="whiteSpace=wrap;html=1;aspect=fixed;align=center;" vertex="1" parent="1">
          <mxGeometry x="340" y="170" width="150" height="150" as="geometry" />
        </mxCell>
        <mxCell id="bGAOC426BUJq2uiU224B-7" value="" style="endArrow=none;html=1;rounded=0;exitX=0.5;exitY=0;exitDx=0;exitDy=0;entryX=0.5;entryY=1;entryDx=0;entryDy=0;" edge="1" parent="1" source="bGAOC426BUJq2uiU224B-2" target="bGAOC426BUJq2uiU224B-1">
          <mxGeometry width="50" height="50" relative="1" as="geometry">
            <mxPoint x="374" y="180" as="sourcePoint" />
            <mxPoint x="424" y="130" as="targetPoint" />
          </mxGeometry>
        </mxCell>
        <mxCell id="bGAOC426BUJq2uiU224B-15" value="Tiene que mostrar el total de numeros mostrados, su suma, su promedio aritmetrico, suma de lo negativo y suma de los positivos" style="rounded=1;whiteSpace=wrap;html=1;fontSize=13;" vertex="1" parent="1">
          <mxGeometry x="310" y="370" width="210" height="80" as="geometry" />
        </mxCell>
        <mxCell id="bGAOC426BUJq2uiU224B-16" value="Hacer una variable para&amp;nbsp;&lt;div&gt;cada caso.&lt;/div&gt;" style="shape=parallelogram;perimeter=parallelogramPerimeter;whiteSpace=wrap;html=1;fixedSize=1;" vertex="1" parent="1">
          <mxGeometry x="80" y="170" width="150" height="90" as="geometry" />
        </mxCell>
        <mxCell id="bGAOC426BUJq2uiU224B-23" style="edgeStyle=orthogonalEdgeStyle;rounded=0;orthogonalLoop=1;jettySize=auto;html=1;" edge="1" parent="1" source="bGAOC426BUJq2uiU224B-17">
          <mxGeometry relative="1" as="geometry">
            <mxPoint x="40" y="150" as="targetPoint" />
          </mxGeometry>
        </mxCell>
        <mxCell id="bGAOC426BUJq2uiU224B-26" style="edgeStyle=orthogonalEdgeStyle;rounded=0;orthogonalLoop=1;jettySize=auto;html=1;" edge="1" parent="1" source="bGAOC426BUJq2uiU224B-17">
          <mxGeometry relative="1" as="geometry">
            <mxPoint x="300" y="410" as="targetPoint" />
            <Array as="points">
              <mxPoint x="140" y="410" />
            </Array>
          </mxGeometry>
        </mxCell>
        <mxCell id="bGAOC426BUJq2uiU224B-17" value="Que cuando se inicie se de el mensaje de inicio y mande numeros el usuario." style="shape=parallelogram;perimeter=parallelogramPerimeter;whiteSpace=wrap;html=1;fixedSize=1;" vertex="1" parent="1">
          <mxGeometry x="50" y="280" width="180" height="100" as="geometry" />
        </mxCell>
        <mxCell id="bGAOC426BUJq2uiU224B-22" value="Apenas el usuario ponga 0&amp;nbsp;&lt;div&gt;se termine y calcule todo.&lt;/div&gt;" style="ellipse;shape=cloud;whiteSpace=wrap;html=1;" vertex="1" parent="1">
          <mxGeometry y="35" width="210" height="110" as="geometry" />
        </mxCell>
        <mxCell id="bGAOC426BUJq2uiU224B-24" value="" style="endArrow=none;html=1;rounded=0;entryX=0.5;entryY=1;entryDx=0;entryDy=0;exitX=0.5;exitY=0;exitDx=0;exitDy=0;" edge="1" parent="1" source="bGAOC426BUJq2uiU224B-15" target="bGAOC426BUJq2uiU224B-2">
          <mxGeometry width="50" height="50" relative="1" as="geometry">
            <mxPoint x="414" y="370" as="sourcePoint" />
            <mxPoint x="464" y="320" as="targetPoint" />
          </mxGeometry>
        </mxCell>
        <mxCell id="bGAOC426BUJq2uiU224B-27" value="Otra variable que vaya contando los numeros ingresados con un cin, para luego hacer un double para dividir el resultado de la suma total con los numeros ingresados." style="rounded=1;whiteSpace=wrap;html=1;" vertex="1" parent="1">
          <mxGeometry x="530" y="180" width="260" height="100" as="geometry" />
        </mxCell>
        <mxCell id="bGAOC426BUJq2uiU224B-28" value="" style="endArrow=none;html=1;rounded=0;" edge="1" parent="1">
          <mxGeometry width="50" height="50" relative="1" as="geometry">
            <mxPoint x="490" y="230" as="sourcePoint" />
            <mxPoint x="530" y="230" as="targetPoint" />
          </mxGeometry>
        </mxCell>
        <mxCell id="bGAOC426BUJq2uiU224B-29" style="edgeStyle=orthogonalEdgeStyle;rounded=0;orthogonalLoop=1;jettySize=auto;html=1;exitX=0.5;exitY=1;exitDx=0;exitDy=0;" edge="1" parent="1" source="bGAOC426BUJq2uiU224B-27" target="bGAOC426BUJq2uiU224B-27">
          <mxGeometry relative="1" as="geometry" />
        </mxCell>
        <mxCell id="bGAOC426BUJq2uiU224B-32" style="edgeStyle=orthogonalEdgeStyle;rounded=0;orthogonalLoop=1;jettySize=auto;html=1;" edge="1" parent="1" source="bGAOC426BUJq2uiU224B-30">
          <mxGeometry relative="1" as="geometry">
            <mxPoint x="650" y="170" as="targetPoint" />
          </mxGeometry>
        </mxCell>
        <mxCell id="bGAOC426BUJq2uiU224B-30" value="n &amp;gt;= 0" style="ellipse;whiteSpace=wrap;html=1;" vertex="1" parent="1">
          <mxGeometry x="590" y="65" width="120" height="80" as="geometry" />
        </mxCell>
        <mxCell id="bGAOC426BUJq2uiU224B-33" value="n != 0" style="ellipse;whiteSpace=wrap;html=1;" vertex="1" parent="1">
          <mxGeometry x="590" y="300" width="120" height="80" as="geometry" />
        </mxCell>
        <mxCell id="bGAOC426BUJq2uiU224B-36" style="edgeStyle=orthogonalEdgeStyle;rounded=0;orthogonalLoop=1;jettySize=auto;html=1;" edge="1" parent="1" source="bGAOC426BUJq2uiU224B-35">
          <mxGeometry relative="1" as="geometry">
            <mxPoint x="300" y="420" as="targetPoint" />
            <Array as="points">
              <mxPoint x="140" y="445" />
              <mxPoint x="260" y="445" />
              <mxPoint x="260" y="420" />
            </Array>
          </mxGeometry>
        </mxCell>
        <mxCell id="bGAOC426BUJq2uiU224B-35" value="int numb = 0;&lt;div&gt;int sum = 0;&lt;/div&gt;&lt;div&gt;double prob_arit = 0&lt;/div&gt;&lt;div&gt;int sum_post = 0;&lt;/div&gt;&lt;div&gt;int sum_neg = 0;&lt;/div&gt;" style="ellipse;whiteSpace=wrap;html=1;" vertex="1" parent="1">
          <mxGeometry x="62.5" y="470" width="155" height="130" as="geometry" />
        </mxCell>
      </root>
    </mxGraphModel>
  </diagram>
</mxfile>
